<?xml version="1.0" standalone="no"?>
<!DOCTYPE svg PUBLIC "-//W3C//DTD SVG 20010904//EN"
 "http://www.w3.org/TR/2001/REC-SVG-20010904/DTD/svg10.dtd">
<svg version="1.0" xmlns="http://www.w3.org/2000/svg"
 width="700.000000pt" height="700.000000pt" viewBox="0 0 700.000000 700.000000"
 preserveAspectRatio="xMidYMid meet">
<metadata>
Created by potrace 1.11, written by Peter Selinger 2001-2013
</metadata>
<g transform="translate(0.000000,700.000000) scale(0.100000,-0.100000)"
fill="#000000" stroke="none">
<path d="M3207 6793 c-359 -33 -687 -116 -1009 -254 -394 -168 -721 -391
-1034 -703 -462 -463 -757 -1003 -898 -1646 -29 -133 -30 -144 -52 -327 -22
-185 -22 -650 1 -733 2 -8 7 -40 11 -70 10 -84 11 -90 23 -160 159 -870 676
-1655 1416 -2148 307 -204 602 -338 986 -447 67 -19 70 -19 224 -49 66 -13
145 -27 176 -30 31 -4 66 -9 78 -11 121 -23 557 -23 736 0 126 17 200 28 265
41 41 8 84 16 95 18 11 2 56 14 100 25 44 12 88 23 97 26 110 26 400 141 572
227 614 308 1149 845 1459 1464 113 225 216 508 264 719 19 89 52 272 58 325
4 36 8 67 10 70 7 12 18 238 19 380 3 880 -355 1730 -991 2351 -477 466 -1039
759 -1703 888 -85 17 -130 23 -330 47 -101 12 -433 10 -573 -3z"/>
</g>
</svg>
